<svg width="18" height="18" viewBox="0 0 18 18" fill="none" xmlns="http://www.w3.org/2000/svg">
<path d="M10.7197 13.7196L9.74998 14.6893V10.5C9.74998 10.0858 9.41421 9.75 9 9.75C8.58579 9.75 8.25001 10.0858 8.25001 10.5V14.6893L7.28033 13.7196C6.98744 13.4267 6.51255 13.4267 6.21967 13.7196C5.92678 14.0125 5.92678 14.4874 6.21967 14.7803L8.46967 17.0303C8.46981 17.0304 8.46995 17.0305 8.47005 17.0306C8.48742 17.048 8.50563 17.0644 8.52461 17.08C8.5333 17.0871 8.54244 17.0933 8.55137 17.1C8.56202 17.108 8.57246 17.1162 8.58354 17.1236C8.59422 17.1308 8.6053 17.137 8.61623 17.1435C8.62629 17.1495 8.63609 17.1558 8.64647 17.1614C8.65761 17.1673 8.66907 17.1724 8.68046 17.1777C8.69129 17.1828 8.70191 17.1883 8.71298 17.1929C8.72402 17.1974 8.73531 17.2011 8.74649 17.2051C8.75837 17.2094 8.77011 17.214 8.78227 17.2176C8.79345 17.221 8.80484 17.2235 8.81616 17.2264C8.82857 17.2295 8.84081 17.233 8.85347 17.2355C8.86654 17.2381 8.87976 17.2396 8.89291 17.2415C8.90395 17.2431 8.91478 17.2452 8.92599 17.2463C8.95036 17.2487 8.97479 17.25 8.99922 17.25C8.99947 17.25 8.99975 17.25 9 17.25C9.00024 17.25 9.00052 17.25 9.00077 17.25C9.0252 17.2499 9.04964 17.2487 9.074 17.2463C9.08518 17.2452 9.09604 17.2431 9.10708 17.2415C9.12027 17.2396 9.13345 17.2381 9.14653 17.2355C9.15915 17.233 9.17142 17.2295 9.18383 17.2264C9.19515 17.2235 9.20651 17.221 9.21772 17.2176C9.22988 17.214 9.24163 17.2094 9.25351 17.2051C9.26469 17.2011 9.27597 17.1974 9.28701 17.1929C9.29809 17.1883 9.30874 17.1829 9.31953 17.1777C9.33092 17.1724 9.34238 17.1673 9.35353 17.1614C9.36386 17.1558 9.37371 17.1495 9.38376 17.1435C9.3947 17.137 9.40577 17.1308 9.41646 17.1236C9.42753 17.1162 9.43797 17.108 9.44863 17.1C9.45756 17.0933 9.4667 17.0871 9.47538 17.08C9.49436 17.0644 9.51261 17.048 9.52994 17.0306C9.53008 17.0305 9.53022 17.0304 9.53033 17.0303L11.7803 14.7803C12.0732 14.4874 12.0732 14.0125 11.7803 13.7196C11.4874 13.4267 11.0126 13.4267 10.7197 13.7196Z" fill="#EF672B"/>
<path d="M15.7097 6.1674C15.3605 3.40746 12.8172 0.75 10.1618 0.75C8.60301 0.75 7.07597 1.5098 6.05468 2.69931C6.04607 2.69618 6.03724 2.69354 6.02859 2.69048C5.99404 2.67821 5.95941 2.66626 5.92439 2.65522C5.90952 2.65055 5.8944 2.6465 5.87946 2.64207C5.84852 2.63286 5.81755 2.62386 5.78633 2.61564C5.77136 2.6117 5.75624 2.60822 5.74119 2.60453C5.70899 2.59658 5.67671 2.58902 5.6442 2.58213C5.63027 2.57921 5.61632 2.57651 5.60232 2.57377C5.56738 2.56687 5.53229 2.56062 5.49703 2.55496C5.48522 2.55306 5.47344 2.5512 5.46159 2.54947C5.42183 2.5436 5.38193 2.53857 5.34185 2.53425C5.33419 2.53344 5.32656 2.53249 5.31886 2.53172C5.21926 2.5218 5.11878 2.51621 5.01753 2.51621C4.80892 2.51621 4.60536 2.5377 4.40859 2.57791C4.40561 2.57851 4.40269 2.57929 4.3997 2.57988C4.35428 2.5893 4.30924 2.59964 4.26459 2.61107C4.25756 2.61286 4.25067 2.61497 4.24368 2.61683C4.20325 2.62752 4.16303 2.63873 4.12327 2.65104C4.11367 2.65399 4.10425 2.65733 4.09468 2.66039C4.0578 2.6722 4.0211 2.6844 3.98486 2.69755C3.9735 2.70166 3.96236 2.70616 3.95107 2.71042C3.91697 2.72329 3.88301 2.73643 3.8495 2.75046C3.83695 2.7557 3.82461 2.76136 3.81213 2.76677C3.78032 2.78062 3.74868 2.79469 3.71742 2.80959C3.70403 2.81596 3.69088 2.82271 3.67759 2.82928C3.64774 2.84405 3.61804 2.85906 3.58875 2.87477C3.57486 2.88223 3.56119 2.89 3.54744 2.89766C3.51928 2.91334 3.4913 2.92927 3.46366 2.94582C3.4495 2.9543 3.43557 2.96309 3.42155 2.9718C3.3949 2.98836 3.36846 3.0052 3.34238 3.02257C3.3281 3.03206 3.31404 3.0418 3.29994 3.05154C3.27473 3.06898 3.2497 3.08663 3.22506 3.10477C3.21086 3.11524 3.19683 3.12589 3.1828 3.13662C3.15886 3.1549 3.13516 3.17343 3.11182 3.19241C3.09783 3.20377 3.08401 3.21526 3.07027 3.22686C3.04755 3.24599 3.02509 3.26539 3.00294 3.28519C2.98927 3.29739 2.97573 3.30973 2.9623 3.32217C2.94079 3.34211 2.91955 3.36236 2.8986 3.38289C2.88531 3.39593 2.87212 3.40904 2.85908 3.42233C2.83869 3.44311 2.81865 3.46417 2.79886 3.48551C2.78606 3.49929 2.77337 3.51311 2.76086 3.52713C2.74155 3.54872 2.72264 3.57066 2.70397 3.59277C2.69177 3.60722 2.67964 3.6217 2.66769 3.63636C2.64945 3.65883 2.63166 3.68164 2.61404 3.70464C2.60255 3.71965 2.59102 3.7347 2.5798 3.74992C2.56261 3.77326 2.54591 3.79699 2.52935 3.82086C2.51859 3.83637 2.5078 3.85187 2.49732 3.86759C2.48112 3.89191 2.46551 3.91659 2.45 3.94141C2.44009 3.95727 2.43007 3.97309 2.42044 3.98916C2.40521 4.01454 2.39066 4.04031 2.37618 4.06615C2.36718 4.08225 2.358 4.09821 2.34928 4.11449C2.33504 4.14103 2.32151 4.168 2.30804 4.195C2.30003 4.2111 2.2918 4.22709 2.28403 4.24337C2.27078 4.27125 2.25826 4.29952 2.24585 4.32785C2.23886 4.34381 2.23158 4.35963 2.22486 4.37573C2.21252 4.40523 2.20106 4.43511 2.18964 4.46507C2.18377 4.48046 2.17758 4.49572 2.17195 4.51123C2.16053 4.54273 2.15005 4.57468 2.13964 4.60668C2.13497 4.62109 2.12991 4.63533 2.12544 4.64985C2.11489 4.68409 2.10537 4.71879 2.09598 4.75356C2.09257 4.76618 2.08877 4.77859 2.08554 4.79125C2.07573 4.82967 2.06701 4.86855 2.05868 4.90754C2.05668 4.91686 2.05432 4.92604 2.05242 4.93535C2.04311 4.98109 2.03495 5.02721 2.02771 5.07366C2.02729 5.07647 2.02669 5.07921 2.02627 5.08199C2.01101 5.1819 2.00046 5.28336 1.99522 5.38623C0.805887 6.15127 0 7.56254 0 8.99998C0 10.7993 1.14746 12.7663 2.70243 13.4384L2.84484 13.5H4.5C4.91421 13.5 5.24999 13.1642 5.24999 12.75C5.24999 12.3358 4.91421 12 4.5 12H3.1693C2.25179 11.5159 1.50001 10.1752 1.50001 8.99998C1.50001 7.9789 2.16633 6.93388 3.06534 6.50307L3.49126 6.29899V5.8267C3.49126 5.81443 3.49196 5.79661 3.49369 5.76655C3.4959 5.72918 3.4959 5.72918 3.49675 5.71484L3.49699 5.63268C3.49509 5.5998 3.49509 5.5998 3.49341 5.5759C3.49168 4.88082 3.92154 4.3075 4.5199 4.0999C4.67578 4.04618 4.84288 4.01658 5.01697 4.01658C5.25266 4.01658 5.47583 4.07005 5.6751 4.16536C5.67946 4.16747 5.68378 4.16968 5.68814 4.17183C5.70308 4.17914 5.71785 4.18673 5.73251 4.19454C5.74014 4.19862 5.74773 4.20266 5.75529 4.20688C5.76636 4.21303 5.7773 4.21939 5.7882 4.22579C5.80816 4.23753 5.82792 4.2497 5.8474 4.26239C5.852 4.26538 5.85671 4.26826 5.86128 4.27129L5.87531 4.2806C6.27848 4.55517 6.54328 5.01765 6.54328 5.54208C6.54328 5.95629 6.87906 6.29207 7.29327 6.29207C7.70748 6.29207 8.04326 5.95629 8.04326 5.54208C8.04326 4.78221 7.76247 4.0884 7.29981 3.55705C8.04224 2.75823 9.10709 2.24998 10.1617 2.24998C11.8914 2.24998 13.7085 4.04723 14.1496 5.95341C13.9414 5.9571 13.7322 5.97127 13.5262 5.9995C13.4953 6.00382 13.4953 6.00382 13.4642 6.00843C13.0547 6.07048 12.773 6.4528 12.8351 6.86234C12.8971 7.27187 13.2794 7.55354 13.689 7.49149C13.7093 7.48847 13.7093 7.48847 13.7297 7.48562C14.043 7.44273 14.3929 7.44414 14.7206 7.47335C14.7902 7.47954 14.8422 7.48548 14.8732 7.48956C15.9001 7.68886 16.5 8.51967 16.5 9.75C16.5 10.8447 15.8494 11.7411 14.9068 12H13.5C13.0858 12 12.75 12.3358 12.75 12.75C12.75 13.1642 13.0858 13.5 13.5 13.5H15.0865L15.1707 13.4803C16.8505 13.0878 18 11.5551 18 9.74996C18 8.04457 17.1515 6.68554 15.7097 6.1674Z" fill="#EF672B"/>
</svg>
