<svg width="16" height="14" viewBox="0 0 16 14" fill="none" xmlns="http://www.w3.org/2000/svg">
<path d="M14.0468 0.911865H1.95655C0.877302 0.911865 0 1.78917 0 2.86842V11.1316C0 12.2109 0.877302 13.0882 1.95655 13.0882H14.0435C15.1227 13.0882 16 12.2109 16 11.1316V2.87173C16.0033 1.79248 15.126 0.911865 14.0468 0.911865ZM15.1095 11.1316C15.1095 11.7176 14.6327 12.1943 14.0468 12.1943H1.95655C1.37058 12.1943 0.893855 11.7176 0.893855 11.1316V2.87173C0.893855 2.28575 1.37058 1.80903 1.95655 1.80903H14.0435C14.6294 1.80903 15.1061 2.28575 15.1061 2.87173V11.1316H15.1095Z" fill="white"/>
<path d="M10.0906 6.89741L14.0037 3.38819C14.1858 3.22266 14.2023 2.94126 14.0368 2.75587C13.8713 2.57379 13.5899 2.55723 13.4045 2.72276L8.00826 7.56614L6.95549 6.62594C6.95218 6.62263 6.94887 6.61932 6.94887 6.61601C6.9257 6.59283 6.90253 6.57297 6.87604 6.55311L2.59216 2.71945C2.40677 2.55392 2.12537 2.57048 1.95984 2.75587C1.79431 2.94126 1.81086 3.22266 1.99626 3.38819L5.9557 6.9272L2.01281 10.6185C1.83404 10.7873 1.82411 11.0687 1.99294 11.2508C2.08233 11.3435 2.20151 11.3932 2.32069 11.3932C2.42994 11.3932 2.53919 11.3534 2.62526 11.274L6.62775 7.52973L7.71362 8.49973C7.79969 8.57587 7.90563 8.61229 8.01157 8.61229C8.11751 8.61229 8.22675 8.57256 8.30952 8.49642L9.42518 7.49662L13.4045 11.2773C13.4906 11.3601 13.6031 11.3998 13.7124 11.3998C13.8316 11.3998 13.9474 11.3534 14.0368 11.2608C14.2057 11.082 14.199 10.7973 14.0203 10.6284L10.0906 6.89741Z" fill="white"/>
</svg>
