<svg width="16" height="14"  fill="none" xmlns="http://www.w3.org/2000/svg">
<path d="M14.5712 13.2857C14.9309 13.2857 15.2425 13.167 15.5075 12.9325L10.9744 8.39928C10.8656 8.47716 10.7602 8.55289 10.6606 8.6249C10.3214 8.87484 10.0461 9.06987 9.83467 9.20963C9.62328 9.3497 9.34203 9.49247 8.99094 9.63824C8.63963 9.78418 8.31233 9.85692 8.00871 9.85692H7.99982H7.99094C7.68729 9.85692 7.35999 9.78421 7.0087 9.63824C6.65741 9.49247 6.37616 9.3497 6.16498 9.20963C5.95359 9.06987 5.67841 8.87487 5.339 8.6249C5.24442 8.55556 5.13952 8.47948 5.02611 8.39806L0.492188 12.9325C0.757085 13.167 1.06892 13.2857 1.42855 13.2857H14.5712Z" fill="white"/>
<path d="M0.901882 5.54469C0.562678 5.31855 0.261876 5.05955 0 4.76781V11.6647L3.99542 7.66933C3.19611 7.1113 2.16624 6.4039 0.901882 5.54469Z" fill="white"/>
<path d="M15.1068 5.54469C13.8907 6.36782 12.8571 7.07644 12.0059 7.67093L15.9997 11.6649V4.76781C15.7436 5.05368 15.446 5.3125 15.1068 5.54469Z" fill="white"/>
<path d="M14.5711 0.714264H1.42848C0.969972 0.714264 0.617464 0.869095 0.370519 1.17844C0.123371 1.48792 0 1.87497 0 2.33914C0 2.71408 0.16372 3.12033 0.491014 3.55801C0.818308 3.99551 1.16658 4.33916 1.53564 4.58913C1.73797 4.73208 2.34811 5.15625 3.36607 5.8615C3.91559 6.2423 4.39348 6.57422 4.80414 6.86064C5.15418 7.10453 5.45606 7.31575 5.7053 7.49103C5.73391 7.5111 5.77891 7.54329 5.83863 7.58599C5.90297 7.63221 5.9844 7.69086 6.08485 7.76339C6.27829 7.90329 6.43898 8.01638 6.56697 8.10277C6.69479 8.18919 6.84965 8.28572 7.03132 8.39291C7.21285 8.49996 7.38406 8.58045 7.54476 8.63399C7.70549 8.6875 7.85428 8.71434 7.99115 8.71434H8.00004H8.00893C8.14578 8.71434 8.2946 8.6875 8.45536 8.63399C8.61603 8.58045 8.7871 8.50013 8.96877 8.39291C9.15026 8.28572 9.30492 8.18899 9.43314 8.10277C9.56113 8.01638 9.72183 7.90332 9.9153 7.76339C10.0155 7.69086 10.097 7.63218 10.1613 7.58613C10.2211 7.54326 10.266 7.51128 10.2948 7.49103C10.489 7.35592 10.7916 7.14558 11.1984 6.86311C11.9386 6.3488 13.0287 5.59181 14.4734 4.58913C14.9079 4.28565 15.2709 3.91943 15.5626 3.49099C15.8538 3.06255 15.9998 2.61313 15.9998 2.14289C15.9998 1.75 15.8583 1.41382 15.5758 1.13382C15.293 0.854164 14.958 0.714264 14.5711 0.714264Z" fill="white"/>
</svg>
