<svg width="16" height="16" viewBox="0 0 16 16" fill="none" xmlns="http://www.w3.org/2000/svg">
<g clip-path="url(#clip0)">
<path d="M11.7061 15.8401L12.5076 15.0386C12.6146 14.9318 12.668 14.8087 12.668 14.6696C12.668 14.5309 12.6146 14.4079 12.5076 14.3011L6.20691 8.00008L12.5074 1.69934C12.6145 1.59248 12.6678 1.4695 12.6678 1.33058C12.6678 1.19159 12.6145 1.06862 12.5074 0.961811L11.7059 0.160377C11.5991 0.0533466 11.4761 -5.20986e-08 11.3371 -5.81736e-08C11.1982 -6.42438e-08 11.0753 0.053515 10.9685 0.160377L3.49735 7.63132C3.39049 7.73812 3.33708 7.86116 3.33708 8.00008C3.33708 8.13901 3.39049 8.26182 3.49735 8.36857L10.9685 15.8401C11.0753 15.9469 11.1983 16 11.3371 16C11.4761 16 11.5991 15.9469 11.7061 15.8401Z" fill="white"/>
</g>
<defs>
<clipPath id="clip0">
<rect x="16" width="16" height="16" transform="rotate(90 16 0)" fill="white"/>
</clipPath>
</defs>
</svg>
