<svg width="18" height="18" viewBox="0 0 18 18" fill="none" xmlns="http://www.w3.org/2000/svg">
<path d="M16.7301 4.5351H14.714V1.24326C14.714 0.942631 14.4703 0.699036 14.1697 0.699036H3.83026C3.5297 0.699036 3.28603 0.942631 3.28603 1.24326V4.5351H1.26986C0.569695 4.5351 0 5.10472 0 5.80496V12.7874C0 13.4875 0.569695 14.0572 1.26986 14.0572H3.28603V16.7568C3.28603 17.0574 3.5297 17.301 3.83026 17.301H14.1697C14.4702 17.301 14.7139 17.0574 14.7139 16.7568V14.0572H16.7301C17.4302 14.0572 17.9999 13.4875 17.9999 12.7874V5.80496C18 5.10479 17.4303 4.5351 16.7301 4.5351ZM4.37448 1.78749H13.6254V4.5351H4.37448V1.78749ZM13.6254 16.2126H4.37448V10.8136H13.6254V16.2126ZM16.9115 12.7874C16.9115 12.8857 16.8285 12.9688 16.7301 12.9688H14.714V10.2693C14.714 9.96872 14.4703 9.72512 14.1697 9.72512H3.83026C3.5297 9.72512 3.28603 9.96872 3.28603 10.2693V12.9688H1.26986C1.17154 12.9688 1.08845 12.8857 1.08845 12.7874V5.80496C1.08845 5.70656 1.17154 5.62355 1.26986 5.62355H3.83026H14.1697H16.7301C16.8284 5.62355 16.9115 5.70656 16.9115 5.80496V12.7874H16.9115Z" fill="white"/>
<path d="M14.1686 8.44848C14.5962 8.44848 14.9427 8.1019 14.9427 7.67437C14.9427 7.24685 14.5962 6.90027 14.1686 6.90027C13.7411 6.90027 13.3945 7.24685 13.3945 7.67437C13.3945 8.1019 13.7411 8.44848 14.1686 8.44848Z" fill="white"/>
<path d="M11.4767 11.8875H6.52469C6.22414 11.8875 5.98047 12.1311 5.98047 12.4317C5.98047 12.7324 6.22414 12.976 6.52469 12.976H11.4767C11.7773 12.976 12.0209 12.7324 12.0209 12.4317C12.0209 12.1312 11.7773 11.8875 11.4767 11.8875Z" fill="white"/>
<path d="M11.4767 14.05H6.52469C6.22414 14.05 5.98047 14.2936 5.98047 14.5942C5.98047 14.8948 6.22414 15.1384 6.52469 15.1384H11.4767C11.7773 15.1384 12.0209 14.8948 12.0209 14.5942C12.0209 14.2936 11.7773 14.05 11.4767 14.05Z" fill="white"/>
</svg>
