<svg width="14" height="16" viewBox="0 0 14 16" fill="none" xmlns="http://www.w3.org/2000/svg">
<path d="M7.00055 7.82505C8.77948 7.82505 10.2217 6.07337 10.2217 3.91255C10.2217 1.75168 9.74821 0 7.00055 0C4.2529 0 3.7793 1.75168 3.7793 3.91255C3.7793 6.07337 5.22154 7.82505 7.00055 7.82505Z" fill="#ACACAC"/>
<path d="M13.0859 13.9019C13.0877 13.8658 13.0865 13.6517 13.0859 13.9019V13.9019Z" fill="#ACACAC"/>
<path d="M13.0773 13.641C13.0176 9.87679 12.526 8.80419 8.76402 8.12524C8.76402 8.12524 8.23446 8.80003 7.00017 8.80003C5.76589 8.80003 5.23624 8.12524 5.23624 8.12524C1.51533 8.79679 0.993821 9.85348 0.92525 13.5187C0.919627 13.818 0.917021 13.8337 0.916016 13.799C0.916244 13.8641 0.916518 13.9845 0.916518 14.1945C0.916518 14.1945 1.81215 16 7.00017 16C12.1881 16 13.0838 14.1945 13.0838 14.1945C13.0838 14.0596 13.0839 13.9658 13.0841 13.9019C13.0831 13.9234 13.081 13.8818 13.0773 13.641Z" fill="#ACACAC"/>
</svg>
