<svg width="20" height="20" viewBox="0 0 20 20" fill="none" xmlns="http://www.w3.org/2000/svg">
<g clip-path="url(#clip0)">
<path d="M17.5585 2.38982H2.44569C1.09663 2.38982 0 3.48644 0 4.8355V15.1645C0 16.5136 1.09663 17.6102 2.44569 17.6102H17.5543C18.9034 17.6102 20 16.5136 20 15.1645V4.83964C20.0041 3.49058 18.9075 2.38982 17.5585 2.38982ZM18.8868 15.1645C18.8868 15.897 18.2909 16.4929 17.5585 16.4929H2.44569C1.71322 16.4929 1.11732 15.897 1.11732 15.1645V4.83964C1.11732 4.10718 1.71322 3.51127 2.44569 3.51127H17.5543C18.2868 3.51127 18.8827 4.10718 18.8827 4.83964V15.1645H18.8868Z" fill="black"/>
<path d="M12.6128 9.87172L17.5041 5.4852C17.7317 5.27829 17.7524 4.92654 17.5455 4.6948C17.3386 4.4672 16.9869 4.4465 16.7551 4.65342L10.0098 10.7076L8.69388 9.53239C8.68974 9.52825 8.6856 9.52411 8.6856 9.51997C8.65664 9.491 8.62767 9.46617 8.59456 9.44134L3.23971 4.64928C3.00797 4.44237 2.65622 4.46306 2.44931 4.6948C2.2424 4.92654 2.26309 5.27829 2.49483 5.4852L7.44414 9.90896L2.51552 14.5231C2.29206 14.7341 2.27964 15.0859 2.49069 15.3135C2.60242 15.4294 2.7514 15.4914 2.90038 15.4914C3.03694 15.4914 3.1735 15.4418 3.28109 15.3425L8.2842 10.6621L9.64153 11.8746C9.74913 11.9698 9.88155 12.0153 10.014 12.0153C10.1464 12.0153 10.283 11.9657 10.3864 11.8705L11.781 10.6207L16.7551 15.3466C16.8627 15.45 17.0034 15.4997 17.14 15.4997C17.289 15.4997 17.4338 15.4418 17.5455 15.3259C17.7566 15.1024 17.7483 14.7466 17.5248 14.5355L12.6128 9.87172Z" fill="black"/>
</g>
<defs>
<clipPath id="clip0">
<rect width="20" height="20" fill="white"/>
</clipPath>
</defs>
</svg>
