<svg width="40" height="28" viewBox="0 0 40 28" fill="none" xmlns="http://www.w3.org/2000/svg">
<path d="M18.3779 27.8216C19.7548 27.8216 20.8711 26.7054 20.8711 25.3285C20.8711 23.9515 19.7548 22.8353 18.3779 22.8353C17.001 22.8353 15.8848 23.9515 15.8848 25.3285C15.8848 26.7054 17.001 27.8216 18.3779 27.8216Z" fill="#EF672B"/>
<path d="M6.64158 27.8216C8.0185 27.8216 9.13472 26.7054 9.13472 25.3285C9.13472 23.9515 8.0185 22.8353 6.64158 22.8353C5.26466 22.8353 4.14844 23.9515 4.14844 25.3285C4.14844 26.7054 5.26466 27.8216 6.64158 27.8216Z" fill="#EF672B"/>
<path d="M38.9138 25.4967H28.848C28.2481 25.4967 27.7617 25.0104 27.7617 24.4104V1.0862C27.7617 0.486286 28.2481 0 28.848 0C29.4478 0 29.9342 0.486286 29.9342 1.0862V23.3242H38.9139C39.5138 23.3242 40.0001 23.8106 40.0001 24.4104C40 25.0104 39.5137 25.4967 38.9138 25.4967Z" fill="#EF672B"/>
<path d="M24.7527 16.1417C22.5056 12.4692 16.5966 2.62799 16.5373 2.52954C16.2365 2.02595 15.6851 1.71313 15.0987 1.71313H5.52735C4.60318 1.71313 3.85135 2.46497 3.85135 3.38913V12.6119H1.15804C0.519429 12.612 0 13.1314 0 13.7699V24.4551C0 25.0935 0.519429 25.613 1.15804 25.613H2.37102C2.52808 25.613 2.65527 25.4856 2.65527 25.3286C2.65527 23.1307 4.44343 21.3425 6.64139 21.3425C8.83935 21.3425 10.6275 23.1307 10.6275 25.3286C10.6275 25.4041 10.6575 25.4764 10.7108 25.5297C10.7642 25.5831 10.8364 25.613 10.9119 25.613H14.1082C14.2652 25.613 14.3926 25.4856 14.3926 25.3286C14.3926 23.1307 16.1806 21.3425 18.3785 21.3425C20.5765 21.3425 22.3647 23.1307 22.3647 25.3286C22.3647 25.4857 22.492 25.613 22.649 25.613H23.5167C24.3456 25.613 25.02 24.9386 25.02 24.1097V16.8985C25.0201 16.6036 24.882 16.3533 24.7527 16.1417ZM15.2427 16.1235V14.5658C15.2427 14.2982 15.0256 14.0811 14.758 14.0811H12.0113V9.49419C12.0113 9.22652 11.7944 9.00946 11.5266 9.00946H9.99176C9.72416 9.00946 9.50702 9.22644 9.50702 9.49419V16.1236H7.20351L7.20327 5.06513H14.1477L20.7554 16.1236H15.2427V16.1235Z" fill="#EF672B"/>
<path d="M39.9985 21.103C39.9985 21.3885 39.7671 21.6199 39.4816 21.6199H32.0756C31.79 21.6199 31.5586 21.3885 31.5586 21.103V13.6969C31.5586 13.4114 31.79 13.1799 32.0756 13.1799H39.4816C39.7671 13.1799 39.9985 13.4114 39.9985 13.6969V21.103Z" fill="#EF672B"/>
<path d="M39.9985 10.546C39.9985 10.8315 39.7671 11.063 39.4816 11.063H32.0756C31.79 11.063 31.5586 10.8315 31.5586 10.546V3.14003C31.5586 2.85448 31.79 2.62305 32.0756 2.62305H39.4816C39.7671 2.62305 39.9985 2.85448 39.9985 3.14003V10.546Z" fill="#EF672B"/>
</svg>
