<svg width="40" height="40" viewBox="0 0 40 40" fill="none" xmlns="http://www.w3.org/2000/svg">
<path d="M6.02417 31.38H4.30969C1.93329 31.38 0 33.3136 0 35.69V38.8281C0 39.4754 0.524597 40 1.17188 40H6.22589C6.09558 39.6332 6.02417 39.2389 6.02417 38.8281V31.38Z" fill="#EF672B"/>
<path d="M14.3914 25.104H12.6772C10.3008 25.104 8.36719 27.0376 8.36719 29.414V38.8281C8.36719 39.4753 8.89178 39.9999 9.53906 39.9999H14.5931C14.4631 39.6331 14.3914 39.2388 14.3914 38.8281V25.104Z" fill="#EF672B"/>
<path d="M39.7698 11.7712L31.4016 0.474243C31.1803 0.176086 30.8312 0 30.4598 0C30.0884 0 29.739 0.176086 29.518 0.474243L21.1501 11.7712C20.8867 12.1268 20.8461 12.6007 21.0451 12.9959C21.2444 13.3911 21.649 13.6407 22.0919 13.6407H25.1039V38.8281C25.1039 39.4754 25.6285 40 26.2758 40H34.6438C35.291 40 35.8156 39.4754 35.8156 38.8281V13.6407H38.828C39.2705 13.6407 39.6755 13.3911 39.8745 12.9959C40.0737 12.6007 40.0332 12.1268 39.7698 11.7712Z" fill="#EF672B"/>
<path d="M22.7608 18.8281H21.0463C18.6699 18.8281 16.7363 20.7614 16.7363 23.1378V38.8281C16.7363 39.4754 17.2612 40 17.9082 40H22.9622C22.8322 39.6332 22.7608 39.2389 22.7608 38.8281V18.8281Z" fill="#EF672B"/>
</svg>
