<svg width="34" height="40" viewBox="0 0 34 40" fill="none" xmlns="http://www.w3.org/2000/svg">
<path d="M8.78906 18.7823C8.78906 23.5126 12.6238 27.3473 17.3541 27.3473C22.0845 27.3473 25.9191 23.5126 25.9191 18.7823C25.9191 14.0519 22.0845 10.2172 17.3541 10.2172C12.6261 10.2225 8.79436 14.0542 8.78906 18.7823ZM17.3541 19.3235C15.9328 19.3315 14.7284 18.2788 14.5466 16.8691C14.3647 15.4597 15.2624 14.1354 16.6393 13.7826V13.0585C16.6393 12.7306 16.905 12.465 17.2329 12.465C17.5608 12.465 17.8264 12.7306 17.8264 13.0585V13.7465C19.1732 13.9744 20.1563 15.1453 20.1477 16.5117C20.1477 16.8356 19.8851 17.0983 19.5611 17.0983C19.2372 17.0983 18.9745 16.8356 18.9745 16.5117C18.9735 15.615 18.2461 14.8889 17.3495 14.8899C16.4528 14.8909 15.7268 15.6187 15.7281 16.5153C15.7291 17.4116 16.4568 18.1377 17.3534 18.1364C18.8072 18.1446 20.0146 19.2602 20.1375 20.7091C20.2603 22.1575 19.258 23.4606 17.8264 23.7137V24.4212C17.8264 24.7491 17.5608 25.0148 17.2329 25.0148C16.905 25.0148 16.6393 24.7491 16.6393 24.4212V23.6773C15.3988 23.3497 14.532 22.2314 14.5237 20.9485C14.5237 20.617 14.7927 20.348 15.1242 20.348C15.4558 20.348 15.7248 20.617 15.7248 20.9485C15.7268 21.7776 16.3515 22.4729 17.1756 22.5633C17.206 22.5583 17.2372 22.556 17.2683 22.5557C17.313 22.5557 17.3574 22.561 17.4011 22.5709C18.2915 22.5491 18.998 21.8144 18.9851 20.924C18.9722 20.0333 18.2445 19.3195 17.3541 19.3235Z" fill="#EF672B"/>
<path d="M31.1002 31.4311C31.0959 31.4334 31.0913 31.4357 31.0863 31.438L25.5762 34.0412C25.6355 34.3463 25.6613 34.6566 25.6531 34.9673C25.6444 35.2886 25.3814 35.5447 25.0601 35.5447C25.0545 35.5447 25.0489 35.5447 25.0433 35.5447L16.979 35.3228C16.6511 35.3138 16.3927 35.0409 16.4017 34.713C16.4106 34.385 16.6839 34.1267 17.0115 34.1356L24.4242 34.3396C24.1784 32.9031 22.9535 31.8392 21.4967 31.7968L16.5912 31.662C15.6223 31.6341 14.6723 31.3887 13.8114 30.9438L13.3123 30.6855C10.8608 29.4082 7.90686 29.5745 5.61439 31.1191L5.41797 38.2555L6.26096 37.804C7.09865 37.3535 8.07877 37.2462 8.9943 37.5049L17.3195 39.8418C18.924 40.1704 20.5915 39.9842 22.084 39.3092L33.6179 31.8484C32.9597 31.1747 31.9405 31.0054 31.1002 31.4311Z" fill="#EF672B"/>
<path d="M0 39.4951L0.29248 28.8774L4.48524 28.993L4.19276 39.6107L0 39.4951Z" fill="#EF672B"/>
<path d="M17.9098 7.03806V0.593571C17.9098 0.26565 17.6441 0 17.3162 0C16.9883 0 16.7227 0.26565 16.7227 0.593571V7.03806C16.7227 7.36598 16.9883 7.63163 17.3162 7.63163C17.6441 7.63163 17.9098 7.36598 17.9098 7.03806Z" fill="#EF672B"/>
<path d="M22.9977 7.03801V3.98536C22.9977 3.65743 22.732 3.39178 22.4041 3.39178C22.0762 3.39178 21.8105 3.65743 21.8105 3.98536V7.03801C21.8105 7.36593 22.0762 7.63158 22.4041 7.63158C22.732 7.63158 22.9977 7.36593 22.9977 7.03801Z" fill="#EF672B"/>
<path d="M12.8219 7.03801V3.98536C12.8219 3.65743 12.5563 3.39178 12.2283 3.39178C11.9004 3.39178 11.6348 3.65743 11.6348 3.98536V7.03801C11.6348 7.36593 11.9004 7.63158 12.2283 7.63158C12.5563 7.63158 12.8219 7.36593 12.8219 7.03801Z" fill="#EF672B"/>
</svg>
