<svg width="22" height="22" viewBox="0 0 22 22" fill="none" xmlns="http://www.w3.org/2000/svg">
<g clip-path="url(#clip0)">
<path d="M18.437 16.1815C18.1268 15.9458 17.6844 16.0062 17.4487 16.3164C17.4035 16.3759 17.3571 16.4347 17.3097 16.4928C16.6022 17.3585 15.6491 18.0614 14.4733 18.584C14.4674 18.5866 14.4617 18.5892 14.4559 18.592C12.6006 19.4775 10.43 19.5985 8.34801 18.934C6.52005 18.3389 5.03276 17.1866 3.92719 15.5091C3.1061 14.1927 2.6758 12.7618 2.64519 11.2526C2.64444 11.2158 2.64449 11.179 2.64421 11.1422H3.5095C3.83484 11.1422 3.99777 10.7489 3.76769 10.5189L2.1959 8.9471C2.05329 8.80448 1.82208 8.80448 1.67947 8.9471L0.107678 10.5189C-0.122351 10.7489 0.0405784 11.1422 0.365873 11.1422H1.23243C1.24372 12.963 1.74887 14.6854 2.73538 16.2638C2.7383 16.2685 2.74126 16.273 2.74422 16.2777C4.03054 18.2329 5.76897 19.5779 7.91522 20.2766C8.94358 20.6048 9.99132 20.7679 11.0234 20.7679C12.4262 20.7678 13.7998 20.4666 15.0549 19.8692C16.5251 19.2142 17.7084 18.306 18.5718 17.1699C18.8075 16.8597 18.7471 16.4173 18.437 16.1815Z" fill="#EF672B"/>
<path d="M21.6354 10.9972H20.7689C20.7688 10.8038 20.7631 10.6083 20.7518 10.4159C20.6618 8.8919 20.2078 7.3912 19.4389 6.07606C18.6891 4.79374 17.6383 3.68116 16.4001 2.85857C15.1411 2.0222 13.6835 1.48432 12.1846 1.30314C10.5189 1.10175 8.82486 1.33032 7.28571 1.96389C5.77632 2.58518 4.43371 3.58717 3.40304 4.8615C3.15806 5.16431 3.20504 5.60848 3.50786 5.85346C3.81077 6.0984 4.25484 6.05147 4.49982 5.7486C4.55249 5.68348 4.60628 5.61929 4.66082 5.55581C5.52009 4.55647 6.60836 3.76825 7.82264 3.26841C9.13901 2.72658 10.5889 2.5312 12.0154 2.70363C13.2967 2.85852 14.543 3.31839 15.6195 4.03359C16.6796 4.73792 17.5793 5.69034 18.2211 6.78811C18.8785 7.91239 19.2667 9.19561 19.3436 10.499C19.3485 10.5819 19.3521 10.6655 19.3546 10.7492C19.3571 10.832 19.3582 10.9148 19.3583 10.9972H18.4919C18.1665 10.9972 18.0036 11.3906 18.2337 11.6206L19.8055 13.1924C19.9481 13.335 20.1793 13.335 20.3219 13.1924L21.8937 11.6206C22.1236 11.3905 21.9607 10.9972 21.6354 10.9972Z" fill="#EF672B"/>
</g>
<defs>
<clipPath id="clip0">
<rect width="22" height="22" fill="white"/>
</clipPath>
</defs>
</svg>
