<svg width="14" height="14" viewBox="0 0 14 14" fill="none" xmlns="http://www.w3.org/2000/svg">
<path d="M13.6919 12.3299L12.4697 5.02877C12.3548 4.34035 11.7586 3.83723 11.0607 3.83723H9.22447C9.43979 3.46209 9.56291 3.02751 9.56291 2.56473C9.56291 1.15059 8.41262 0 6.99819 0C5.58406 0 4.43346 1.15059 4.43346 2.56473C4.43346 3.02751 4.55659 3.46209 4.77191 3.83723H2.93563C2.23751 3.83723 1.64159 4.34096 1.52665 5.02937L0.304792 12.3314C0.235344 12.7454 0.352102 13.1715 0.623525 13.4917C0.895252 13.8123 1.29374 14 1.71407 14H12.2835C12.7038 14 13.1023 13.8123 13.3741 13.4917C13.6452 13.1709 13.7616 12.7442 13.6919 12.3299ZM6.99849 1.49419C7.58865 1.49419 8.06902 1.97457 8.06902 2.56503C8.06902 3.15549 7.58865 3.63556 6.99849 3.63556C6.40803 3.63556 5.92766 3.15519 5.92766 2.56473C5.92766 1.97427 6.40803 1.49419 6.99849 1.49419Z" fill="#EF672B"/>
</svg>
